<svg width="20" height="20" viewBox="0 0 32 32" fill="none" xmlns="http://www.w3.org/2000/svg">
<path d="M19.064 3.80903C17.732 1.39903 14.268 1.39903 12.936 3.80903L2.44302 22.808C1.15502 25.14 2.84302 28 5.50702 28H26.494C29.158 28 30.846 25.14 29.557 22.808L19.064 3.80903ZM17.25 22C17.25 22.3315 17.1183 22.6495 16.8839 22.8839C16.6495 23.1183 16.3315 23.25 16 23.25C15.6685 23.25 15.3506 23.1183 15.1161 22.8839C14.8817 22.6495 14.75 22.3315 14.75 22C14.75 21.6685 14.8817 21.3506 15.1161 21.1161C15.3506 20.8817 15.6685 20.75 16 20.75C16.3315 20.75 16.6495 20.8817 16.8839 21.1161C17.1183 21.3506 17.25 21.6685 17.25 22ZM16 9.00003C16.2652 9.00003 16.5196 9.10538 16.7071 9.29292C16.8947 9.48046 17 9.73481 17 10V18C17 18.2652 16.8947 18.5196 16.7071 18.7071C16.5196 18.8947 16.2652 19 16 19C15.7348 19 15.4805 18.8947 15.2929 18.7071C15.1054 18.5196 15 18.2652 15 18V10C15 9.73481 15.1054 9.48046 15.2929 9.29292C15.4805 9.10538 15.7348 9.00003 16 9.00003Z" fill="#FFD233"/>
</svg>
